<svg xmlns="http://www.w3.org/2000/svg" viewBox="0 0 419 419" fill="none" role="img" aria-label="ROVELLE"><path fill="currentColor" fill-rule="evenodd" d="M318.2 327.1L317.9 327.8L318.0 328.5L320.0 330.4L320.0 342.5L318.0 344.2L318.0 344.6L319.4 345.9L319.9 346.0L329.5 345.9L330.9 344.5L330.9 343.4L331.9 342.6L331.9 342.2L330.5 341.0L329.4 341.0L327.5 343.0L324.4 343.0L322.9 341.5L322.9 337.4L323.1 337.0L326.5 336.9L327.4 337.9L329.4 337.9L330.0 337.1L329.9 336.4L328.9 335.5L328.9 333.5L328.4 332.9L327.4 333.0L326.5 334.0L323.1 333.9L322.9 333.5L322.9 330.4L324.2 328.9L324.8 328.9L325.1 329.6L325.6 330.0L326.8 329.8L327.5 329.9L329.2 331.9L329.6 331.9L330.9 330.5L330.9 328.4L329.5 327.0ZM284.2 327.1L283.9 328.1L284.0 328.5L285.0 329.4L285.0 342.5L284.0 343.4L284.0 344.5L285.4 345.9L294.5 345.9L296.9 343.5L296.9 341.5L296.5 341.0L295.4 341.0L294.6 342.0L293.4 342.0L292.5 343.0L289.4 343.0L288.9 342.5L288.9 329.4L289.9 328.5L289.9 327.4L289.4 327.0ZM250.2 327.1L249.9 328.1L250.0 328.5L251.0 329.4L251.0 342.5L249.1 344.1L249.1 344.9L250.8 345.0L251.2 345.9L251.6 345.9L252.6 344.8L253.5 344.9L254.4 345.9L259.5 345.9L260.4 344.9L261.6 344.9L261.9 344.6L261.9 343.4L262.9 342.5L263.0 342.1L262.9 341.4L262.4 341.0L260.4 341.0L258.5 343.0L255.4 343.0L253.9 341.6L253.9 341.2L254.9 340.5L255.0 340.0L255.0 336.8L254.8 336.2L253.9 335.6L253.9 335.2L254.9 334.5L254.9 332.4L253.9 331.5L253.8 330.8L253.9 330.4L255.9 328.5L256.0 327.8L255.4 327.0ZM214.2 327.1L213.9 327.8L214.0 328.5L214.4 328.9L215.6 328.9L216.0 329.2L216.0 342.5L214.0 344.2L214.0 344.6L215.4 345.9L215.9 346.0L224.5 345.9L225.4 344.9L226.6 344.9L226.9 344.6L226.9 343.4L227.9 342.5L228.0 342.1L227.9 341.4L227.4 341.0L225.4 341.0L223.5 343.0L220.4 343.0L218.9 341.5L218.9 337.4L219.1 337.0L222.5 336.9L223.4 337.9L225.5 337.9L225.9 337.5L226.0 334.9L225.9 334.4L224.6 333.0L224.0 333.1L223.9 333.6L223.0 334.1L219.1 333.9L218.9 333.5L218.9 330.4L219.4 329.9L223.5 329.9L225.2 331.9L225.8 331.9L226.0 331.2L226.9 330.5L227.0 330.1L226.8 327.1ZM99.2 327.1L98.9 328.1L99.0 328.5L100.0 329.4L100.0 332.5L101.0 333.4L101.1 339.1L101.0 339.5L100.0 340.2L100.1 340.8L100.8 341.0L101.0 341.6L99.0 343.4L99.0 344.5L100.6 346.0L101.5 345.9L102.2 344.9L102.6 344.9L103.4 345.9L104.2 346.0L105.9 344.5L105.9 343.4L105.4 343.0L104.4 343.0L103.9 342.5L104.0 338.6L103.8 337.4L104.1 336.9L104.6 336.9L107.0 339.4L107.0 340.5L109.0 342.4L109.0 343.5L110.4 344.9L111.5 344.9L112.4 345.9L114.6 345.9L114.9 345.6L114.9 343.4L113.5 342.0L112.2 342.0L111.9 341.6L111.9 340.4L109.9 338.5L109.9 337.4L108.9 336.6L108.9 336.2L110.9 334.5L110.9 332.4L111.9 331.6L111.9 331.2L110.9 330.5L110.9 329.4L108.5 327.0ZM104.5 328.8L105.4 328.8L106.2 329.9L107.5 329.9L108.0 330.4L108.0 333.5L106.5 335.0L104.6 335.1L103.9 334.6L103.9 329.4ZM174.1 327.0L174.0 327.6L177.0 330.4L177.0 331.5L178.0 332.4L178.0 334.5L179.0 335.4L179.0 336.5L179.9 337.1L180.0 338.5L181.0 339.4L181.1 340.1L180.9 341.1L181.0 341.5L182.0 342.4L182.0 343.5L183.4 344.9L184.5 344.9L185.9 343.5L185.9 341.4L186.9 340.5L186.9 339.4L187.1 339.0L187.8 338.8L187.9 337.4L188.9 336.5L189.0 336.1L188.8 335.1L188.9 334.2L189.8 333.8L189.9 332.2L190.8 331.8L190.9 330.4L192.9 328.5L192.9 327.4L192.4 327.0L187.1 327.0L187.0 327.6L188.1 328.6L188.1 332.2L188.0 332.6L187.0 333.4L187.0 334.6L186.0 335.4L186.0 336.5L185.1 337.2L185.0 338.8L184.2 339.0L183.8 338.5L183.8 337.2L182.9 336.5L182.9 335.4L181.9 334.5L181.9 333.4L180.9 332.5L180.8 331.1L180.2 330.9L179.8 330.1L179.9 329.4L180.9 328.5L180.9 327.4L180.4 327.0ZM143.4 326.0L142.4 327.1L141.1 326.9L140.4 327.0L136.0 331.4L136.0 332.5L135.0 333.4L135.0 339.5L136.0 340.4L136.0 341.5L139.4 344.9L140.0 345.0L141.1 344.8L141.5 344.9L142.4 345.9L142.9 346.0L146.5 345.9L147.1 345.0L148.5 344.9L152.9 340.5L153.0 339.8L152.8 338.8L152.9 338.4L153.9 337.5L153.9 333.4L152.9 332.5L152.9 331.4L148.5 327.0L147.8 326.9L146.9 327.1L146.4 327.0L145.5 326.0ZM142.6 328.8L144.0 329.0L145.5 328.9L146.1 329.8L147.5 329.9L149.0 331.4L149.1 332.1L148.9 333.1L149.0 333.5L150.0 334.4L150.0 339.5L146.5 343.0L142.4 343.0L138.9 339.5L138.8 339.1L138.9 336.6L138.8 336.2L137.9 335.6L137.9 335.2L139.0 334.2L138.8 333.1L138.9 332.4L139.9 331.5L139.9 330.2L140.2 329.9L141.5 329.9L142.0 329.1ZM107.4 82.0L106.0 83.4L105.9 83.9L106.1 85.0L105.9 86.1L106.1 86.6L107.0 87.2L107.0 87.6L106.1 88.2L105.9 88.8L106.0 300.5L107.4 301.9L324.5 301.9L325.9 300.5L325.9 83.4L324.5 82.0ZM321.8 86.0L322.0 86.4L321.9 297.8L321.5 298.0L110.1 297.9L109.9 297.5L110.0 86.1L110.4 85.9L310.5 85.9L311.4 84.9L317.5 84.9L318.4 85.9ZM168.4 148.0L167.9 148.8L167.0 149.4L167.0 150.5L168.4 151.9L172.5 151.9L173.0 152.2L173.0 153.5L174.0 154.4L173.9 158.1L174.1 158.6L175.0 159.2L175.0 159.6L174.0 160.4L174.0 162.5L175.0 163.4L175.0 171.5L174.0 172.4L174.0 181.5L175.0 182.4L175.0 194.5L174.0 195.4L174.0 205.5L175.0 206.4L175.0 216.5L174.0 217.4L174.0 219.5L172.5 221.0L171.4 221.0L170.5 222.0L167.1 222.1L167.1 224.8L190.8 224.8L190.8 222.1L186.4 222.0L185.5 221.0L184.2 221.0L183.9 220.6L183.9 219.4L182.9 218.5L182.8 189.4L183.0 189.0L183.6 188.9L184.6 190.0L190.5 189.9L192.0 191.4L192.0 192.5L194.0 194.4L194.0 195.5L194.9 196.1L195.0 197.5L196.0 198.4L196.0 199.5L198.0 201.4L198.0 202.5L198.9 203.1L199.0 204.5L201.0 206.4L201.0 207.5L201.9 208.1L202.0 209.5L203.0 210.4L203.0 211.5L205.0 213.4L205.0 214.5L205.9 215.1L206.0 216.5L208.0 218.4L208.0 219.5L208.9 220.1L209.0 221.5L211.0 223.4L211.0 224.5L211.9 225.1L212.0 226.5L213.0 227.4L213.0 228.5L215.0 230.4L215.0 231.5L217.0 233.4L217.0 234.5L217.9 235.1L218.0 236.5L220.0 238.4L220.0 239.5L222.0 241.4L222.0 242.5L226.4 246.9L240.5 246.9L241.9 245.6L241.6 245.0L240.5 244.0L237.4 244.0L236.5 243.0L235.4 243.0L234.5 242.0L233.4 242.0L228.9 237.5L228.9 236.4L225.9 233.5L225.9 232.4L225.0 231.8L224.9 230.4L222.9 228.5L222.9 227.4L222.0 226.8L221.9 225.4L220.9 224.5L220.9 223.4L218.9 221.5L218.9 220.4L216.9 218.5L216.9 217.4L216.0 216.8L215.9 215.4L213.9 213.5L213.9 212.4L213.0 211.8L212.9 210.4L211.9 209.5L211.9 208.4L209.9 206.5L209.9 205.4L209.0 204.8L208.9 203.4L206.9 201.5L206.9 200.4L206.0 199.8L205.9 198.4L204.9 197.5L204.9 196.4L202.9 194.5L202.9 193.4L202.0 192.8L201.9 191.4L200.9 190.6L200.8 189.2L199.9 188.6L199.9 188.1L200.4 187.8L201.5 187.9L202.1 187.0L203.5 186.9L204.4 185.9L205.5 185.9L210.9 180.5L210.9 179.4L212.4 177.9L214.5 177.9L217.0 180.4L217.0 181.5L217.9 182.1L218.0 183.5L219.0 184.4L219.1 184.8L218.9 185.9L219.0 186.5L220.0 187.4L220.0 188.5L221.0 189.4L221.1 190.1L220.9 191.1L221.0 191.5L222.0 192.4L222.0 194.5L223.0 195.4L223.0 196.5L224.0 197.4L224.0 199.5L225.0 200.4L225.0 201.5L225.9 202.1L226.0 203.5L227.0 204.4L227.0 206.5L228.0 207.4L228.0 208.5L228.9 209.1L229.0 210.5L230.0 211.4L230.0 213.5L231.0 214.4L231.0 215.5L232.0 216.4L232.1 216.8L231.9 217.9L232.0 218.5L233.0 219.4L233.0 220.5L234.0 221.4L234.0 223.5L235.0 224.4L235.0 225.5L235.9 226.1L236.0 227.5L237.0 228.4L237.1 229.1L236.9 230.1L237.0 230.5L238.0 231.4L238.0 232.5L239.0 233.4L239.0 234.5L239.4 234.9L240.1 235.0L241.9 233.5L241.9 232.4L242.9 231.5L242.9 229.4L243.9 228.5L243.9 227.4L244.9 226.5L244.9 224.4L245.9 223.5L245.9 222.4L246.9 221.5L246.9 219.4L247.9 218.5L247.9 217.4L248.9 216.5L248.9 214.4L249.9 213.5L249.9 212.4L250.9 211.5L250.9 209.4L251.9 208.5L251.9 207.4L252.9 206.5L252.9 204.4L253.9 203.5L253.9 202.4L254.9 201.5L255.0 200.9L254.8 199.8L254.9 199.4L255.9 198.5L255.9 196.4L256.9 195.5L256.9 194.4L257.9 193.5L258.0 193.1L257.8 192.1L257.9 191.4L258.9 190.5L258.9 189.4L259.9 188.5L259.9 187.4L260.9 186.5L260.9 184.4L261.9 183.5L261.9 182.4L262.9 181.5L262.9 180.4L265.4 177.9L266.1 177.8L267.1 178.0L267.5 177.9L268.2 176.9L269.5 176.9L269.9 176.5L269.9 175.4L269.5 175.0L268.2 175.0L267.5 174.0L265.4 174.0L264.5 175.0L259.4 175.0L258.5 174.0L254.4 174.0L253.0 175.4L252.9 176.1L253.2 176.8L255.5 176.9L256.4 177.9L257.6 177.9L257.9 178.1L258.0 183.5L257.0 184.4L256.9 185.0L257.1 186.1L257.0 186.5L256.0 187.4L256.0 189.5L255.0 190.4L255.0 191.5L254.0 192.4L254.0 194.5L253.0 195.4L253.0 196.5L252.0 197.4L252.0 199.5L251.0 200.4L251.0 201.5L250.0 202.4L250.0 204.5L249.0 205.4L249.0 206.5L248.0 207.4L248.0 209.5L247.0 210.4L247.0 211.5L246.0 212.4L246.0 214.5L245.0 215.4L245.0 216.5L244.0 217.4L244.1 218.9L243.9 219.6L243.1 220.2L243.1 221.5L242.8 222.0L242.2 222.0L241.8 221.5L241.8 219.1L240.9 218.6L240.9 217.4L240.0 216.8L239.9 215.4L239.0 214.8L238.9 213.4L237.9 212.5L237.9 210.4L236.9 209.5L236.9 208.4L235.9 207.5L235.9 205.4L234.9 204.5L234.9 203.4L233.9 202.5L233.9 200.4L232.9 199.5L232.9 198.4L231.9 197.5L231.9 195.4L230.9 194.5L230.9 193.4L230.0 192.8L229.9 191.4L228.9 190.5L228.9 188.4L227.9 187.5L227.9 186.4L226.9 185.5L226.8 184.8L227.0 183.8L225.8 182.1L226.0 180.8L225.8 180.2L224.9 179.6L224.9 179.2L226.4 177.9L227.5 177.9L229.0 176.2L229.6 175.9L229.9 175.5L229.8 175.0L228.2 175.0L227.5 174.0L214.4 174.0L213.9 173.5L213.8 172.6L214.9 171.5L214.9 163.4L213.9 162.5L213.8 161.8L214.0 160.8L213.9 160.4L212.9 159.5L212.9 158.4L211.9 157.5L211.9 156.4L208.5 153.0L207.4 153.0L205.5 151.0L204.4 151.0L203.5 150.0L203.1 149.9L202.1 150.1L201.4 150.0L200.5 149.0L195.4 149.0L194.5 148.0L185.4 148.0L184.5 149.0L170.4 149.0L169.5 148.0ZM185.4 151.9L195.5 151.9L196.4 152.9L197.5 152.9L198.4 153.9L199.5 153.9L203.0 157.4L203.0 158.5L204.0 159.4L204.1 160.1L203.9 161.1L204.0 161.5L205.0 162.4L205.0 164.5L206.0 165.4L206.0 173.5L205.0 174.4L205.0 177.5L204.0 178.4L204.0 179.5L202.0 181.4L202.0 182.6L201.6 183.0L200.4 183.0L198.2 185.1L196.8 184.9L196.4 185.0L195.5 186.0L183.4 186.0L182.9 185.5L182.9 154.4Z"/></svg>