<svg xmlns="http://www.w3.org/2000/svg" viewBox="105.9 82.0 220.0 219.9" role="img" aria-label="ROVELLE"><path fill="currentColor" fill-rule="evenodd" d="M107.4 82.0L106.0 83.4L105.9 83.9L106.1 85.0L105.9 86.1L106.1 86.6L107.0 87.2L107.0 87.6L106.1 88.2L105.9 88.8L106.0 300.5L107.4 301.9L324.5 301.9L325.9 300.5L325.9 83.4L324.5 82.0ZM321.8 86.0L322.0 86.4L321.9 297.8L321.5 298.0L110.1 297.9L109.9 297.5L110.0 86.1L110.4 85.9L310.5 85.9L311.4 84.9L317.5 84.9L318.4 85.9ZM168.4 148.0L167.9 148.8L167.0 149.4L167.0 150.5L168.4 151.9L172.5 151.9L173.0 152.2L173.0 153.5L174.0 154.4L173.9 158.1L174.1 158.6L175.0 159.2L175.0 159.6L174.0 160.4L174.0 162.5L175.0 163.4L175.0 171.5L174.0 172.4L174.0 181.5L175.0 182.4L175.0 194.5L174.0 195.4L174.0 205.5L175.0 206.4L175.0 216.5L174.0 217.4L174.0 219.5L172.5 221.0L171.4 221.0L170.5 222.0L167.1 222.1L167.1 224.8L190.8 224.8L190.8 222.1L186.4 222.0L185.5 221.0L184.2 221.0L183.9 220.6L183.9 219.4L182.9 218.5L182.8 189.4L183.0 189.0L183.6 188.9L184.6 190.0L190.5 189.9L192.0 191.4L192.0 192.5L194.0 194.4L194.0 195.5L194.9 196.1L195.0 197.5L196.0 198.4L196.0 199.5L198.0 201.4L198.0 202.5L198.9 203.1L199.0 204.5L201.0 206.4L201.0 207.5L201.9 208.1L202.0 209.5L203.0 210.4L203.0 211.5L205.0 213.4L205.0 214.5L205.9 215.1L206.0 216.5L208.0 218.4L208.0 219.5L208.9 220.1L209.0 221.5L211.0 223.4L211.0 224.5L211.9 225.1L212.0 226.5L213.0 227.4L213.0 228.5L215.0 230.4L215.0 231.5L217.0 233.4L217.0 234.5L217.9 235.1L218.0 236.5L220.0 238.4L220.0 239.5L222.0 241.4L222.0 242.5L226.4 246.9L240.5 246.9L241.9 245.6L241.6 245.0L240.5 244.0L237.4 244.0L236.5 243.0L235.4 243.0L234.5 242.0L233.4 242.0L228.9 237.5L228.9 236.4L225.9 233.5L225.9 232.4L225.0 231.8L224.9 230.4L222.9 228.5L222.9 227.4L222.0 226.8L221.9 225.4L220.9 224.5L220.9 223.4L218.9 221.5L218.9 220.4L216.9 218.5L216.9 217.4L216.0 216.8L215.9 215.4L213.9 213.5L213.9 212.4L213.0 211.8L212.9 210.4L211.9 209.5L211.9 208.4L209.9 206.5L209.9 205.4L209.0 204.8L208.9 203.4L206.9 201.5L206.9 200.4L206.0 199.8L205.9 198.4L204.9 197.5L204.9 196.4L202.9 194.5L202.9 193.4L202.0 192.8L201.9 191.4L200.9 190.6L200.8 189.2L199.9 188.6L199.9 188.1L200.4 187.8L201.5 187.9L202.1 187.0L203.5 186.9L204.4 185.9L205.5 185.9L210.9 180.5L210.9 179.4L212.4 177.9L214.5 177.9L217.0 180.4L217.0 181.5L217.9 182.1L218.0 183.5L219.0 184.4L219.1 184.8L218.9 185.9L219.0 186.5L220.0 187.4L220.0 188.5L221.0 189.4L221.1 190.1L220.9 191.1L221.0 191.5L222.0 192.4L222.0 194.5L223.0 195.4L223.0 196.5L224.0 197.4L224.0 199.5L225.0 200.4L225.0 201.5L225.9 202.1L226.0 203.5L227.0 204.4L227.0 206.5L228.0 207.4L228.0 208.5L228.9 209.1L229.0 210.5L230.0 211.4L230.0 213.5L231.0 214.4L231.0 215.5L232.0 216.4L232.1 216.8L231.9 217.9L232.0 218.5L233.0 219.4L233.0 220.5L234.0 221.4L234.0 223.5L235.0 224.4L235.0 225.5L235.9 226.1L236.0 227.5L237.0 228.4L237.1 229.1L236.9 230.1L237.0 230.5L238.0 231.4L238.0 232.5L239.0 233.4L239.0 234.5L239.4 234.9L240.1 235.0L241.9 233.5L241.9 232.4L242.9 231.5L242.9 229.4L243.9 228.5L243.9 227.4L244.9 226.5L244.9 224.4L245.9 223.5L245.9 222.4L246.9 221.5L246.9 219.4L247.9 218.5L247.9 217.4L248.9 216.5L248.9 214.4L249.9 213.5L249.9 212.4L250.9 211.5L250.9 209.4L251.9 208.5L251.9 207.4L252.9 206.5L252.9 204.4L253.9 203.5L253.9 202.4L254.9 201.5L255.0 200.9L254.8 199.8L254.9 199.4L255.9 198.5L255.9 196.4L256.9 195.5L256.9 194.4L257.9 193.5L258.0 193.1L257.8 192.1L257.9 191.4L258.9 190.5L258.9 189.4L259.9 188.5L259.9 187.4L260.9 186.5L260.9 184.4L261.9 183.5L261.9 182.4L262.9 181.5L262.9 180.4L265.4 177.9L266.1 177.8L267.1 178.0L267.5 177.9L268.2 176.9L269.5 176.9L269.9 176.5L269.9 175.4L269.5 175.0L268.2 175.0L267.5 174.0L265.4 174.0L264.5 175.0L259.4 175.0L258.5 174.0L254.4 174.0L253.0 175.4L252.9 176.1L253.2 176.8L255.5 176.9L256.4 177.9L257.6 177.9L257.9 178.1L258.0 183.5L257.0 184.4L256.9 185.0L257.1 186.1L257.0 186.5L256.0 187.4L256.0 189.5L255.0 190.4L255.0 191.5L254.0 192.4L254.0 194.5L253.0 195.4L253.0 196.5L252.0 197.4L252.0 199.5L251.0 200.4L251.0 201.5L250.0 202.4L250.0 204.5L249.0 205.4L249.0 206.5L248.0 207.4L248.0 209.5L247.0 210.4L247.0 211.5L246.0 212.4L246.0 214.5L245.0 215.4L245.0 216.5L244.0 217.4L244.1 218.9L243.9 219.6L243.1 220.2L243.1 221.5L242.8 222.0L242.2 222.0L241.8 221.5L241.8 219.1L240.9 218.6L240.9 217.4L240.0 216.8L239.9 215.4L239.0 214.8L238.9 213.4L237.9 212.5L237.9 210.4L236.9 209.5L236.9 208.4L235.9 207.5L235.9 205.4L234.9 204.5L234.9 203.4L233.9 202.5L233.9 200.4L232.9 199.5L232.9 198.4L231.9 197.5L231.9 195.4L230.9 194.5L230.9 193.4L230.0 192.8L229.9 191.4L228.9 190.5L228.9 188.4L227.9 187.5L227.9 186.4L226.9 185.5L226.8 184.8L227.0 183.8L225.8 182.1L226.0 180.8L225.8 180.2L224.9 179.6L224.9 179.2L226.4 177.9L227.5 177.9L229.0 176.2L229.6 175.9L229.9 175.5L229.8 175.0L228.2 175.0L227.5 174.0L214.4 174.0L213.9 173.5L213.8 172.6L214.9 171.5L214.9 163.4L213.9 162.5L213.8 161.8L214.0 160.8L213.9 160.4L212.9 159.5L212.9 158.4L211.9 157.5L211.9 156.4L208.5 153.0L207.4 153.0L205.5 151.0L204.4 151.0L203.5 150.0L203.1 149.9L202.1 150.1L201.4 150.0L200.5 149.0L195.4 149.0L194.5 148.0L185.4 148.0L184.5 149.0L170.4 149.0L169.5 148.0ZM185.4 151.9L195.5 151.9L196.4 152.9L197.5 152.9L198.4 153.9L199.5 153.9L203.0 157.4L203.0 158.5L204.0 159.4L204.1 160.1L203.9 161.1L204.0 161.5L205.0 162.4L205.0 164.5L206.0 165.4L206.0 173.5L205.0 174.4L205.0 177.5L204.0 178.4L204.0 179.5L202.0 181.4L202.0 182.6L201.6 183.0L200.4 183.0L198.2 185.1L196.8 184.9L196.4 185.0L195.5 186.0L183.4 186.0L182.9 185.5L182.9 154.4Z"/></svg>