<svg xmlns="http://www.w3.org/2000/svg" viewBox="166.1 147.2 103.0 99.8" role="img" aria-label="RV"><path fill="currentColor" fill-rule="evenodd" d="M240 245.02C240 245.02 239 245.46 239 245.46C239 245.46 238 245.42 238 245.42C236.68 245.37 237.32 245.37 236 245.39C234 245.43 232 245.41 230 245.42C229.33 245.43 228.67 245.36 228 245.38C227.04 245.42 226.95 245.66 226 245.32C226 245.32 225.59 245 225.59 245C224.91 244.4 224.34 243.69 223.74 243C222.4 241.43 221.28 239.76 220.2 238C219.57 236.99 218.9 236.02 218.3 235C218.2 234.84 217.65 234.09 217.6 234C216.75 232.69 215.94 231.35 215.16 230C214.39 228.64 213.47 227.35 212.67 226C211.9 224.69 211.2 223.34 210.48 222C209.76 220.65 208.94 219.35 208.2 218C207.44 216.63 206.5 215.36 205.74 214C204.78 212.29 203.64 210.69 202.66 209C202.09 208.01 201.56 207 201 206C200.24 204.64 199.34 203.35 198.55 202C197.4 200.02 196.27 198.02 195.19 196C194.45 194.64 193.56 193.34 192.79 192C192.2 190.98 191.69 189.98 191.03 189C190.82 188.69 190.36 188.65 190 188.56C189.55 188.44 188.45 188.47 188 188.46C187 188.43 186 188.39 185 188.31C183.96 188.22 182.96 187.93 182 188.53C181.5 188.85 181.6 189.53 181.58 190C181.49 191.99 181.63 194.01 181.63 196C181.63 201 181.46 206 181.51 211C181.54 213.3 181.36 215.76 181.94 218C182.03 218.35 182.21 218.67 182.35 219C182.7 219.83 183.16 220.74 184 221.2C184.83 221.66 185.09 221.74 186 221.92C186.64 222.04 187.36 222.21 188 222.32C188 222.32 189 222.41 189 222.41C189 222.41 189.45 223 189.45 223C189.45 223 189 223.27 189 223.27C189 223.27 188 223.33 188 223.33C186.67 223.39 185.33 223.4 184 223.36C181.67 223.29 179.34 223.35 177 223.35C176 223.35 175 223.28 174 223.29C172.67 223.3 171.33 223.25 170 223.27C169.22 223.28 168.78 223.37 168 223.19C167.57 223.1 167.45 222.85 168 222.59C169.09 222.07 168.89 222.58 170 222.31C170 222.31 170.47 222 170.47 222C170.47 222 171 221.86 171 221.86C172.41 221.38 173.76 220.44 174.35 219C174.57 218.47 174.74 217.56 174.83 217C175.02 215.67 174.97 214.33 174.96 213C174.95 210.67 174.94 208.33 174.91 206C174.86 201 174.89 196 174.97 191C175.03 187.33 174.93 183.67 174.89 180C174.86 177.33 174.9 174.67 174.91 172C174.93 168.67 174.94 165.33 174.9 162C174.88 160.34 174.96 158.65 174.77 157C174.7 156.33 174.58 155.67 174.49 155C174.33 153.82 174.04 152.37 173 151.6C172.12 150.94 171.09 150.39 170 150.23C169.97 150.23 168.19 150.14 168.11 150C168.11 150 168.4 149 168.4 149C168.4 149 169 148.91 169 148.91C169.67 148.9 170.34 149.01 171 149.02C174 149.08 176.99 149.17 180 149.15C182.34 149.14 184.66 148.87 187 148.71C188 148.65 189 148.68 190 148.67C191 148.67 192 148.63 193 148.69C197.15 148.94 201.32 149.79 205 151.79C206.9 152.81 208.51 154.22 210 155.77C210.56 156.36 211.11 157.29 211.55 158C212.14 158.96 212.45 159.92 212.77 161C213.06 162 213.36 162.97 213.51 164C213.67 165 213.64 165.99 213.63 167C213.62 168.01 213.62 169 213.48 170C213.37 170.79 213.26 171.22 213.07 172C212.99 172.34 212.83 172.66 212.76 173C212.68 173.41 212.47 174.26 213 174.6C213.63 174.99 214.34 174.78 215 174.79C215 174.79 216 174.86 216 174.86C217 174.9 218 174.78 219 174.78C221 174.78 223 174.86 225 174.78C225.39 174.77 226.61 174.71 227 174.77C227.6 174.87 227.97 175.24 227.64 176C227.64 176 227 176.26 227 176.26C226.24 176.46 225.57 176.35 225 177.06C225 177.06 224.28 178 224.28 178C223.94 178.73 224.13 179.27 224.26 180C224.4 180.77 224.48 181.26 224.76 182C225.15 183.04 224.86 181.95 225.25 183C225.73 184.32 226.16 185.7 226.7 187C226.84 187.34 227.06 187.66 227.2 188C227.9 189.67 228.62 191.32 229.3 193C230.51 196.01 231.85 198.98 233.04 202C233.95 204.33 234.78 206.7 235.77 209C236.35 210.33 236.96 211.67 237.55 213C237.7 213.34 237.9 213.65 238.02 214C238.49 215.25 238.27 214.78 238.85 216C239.63 217.64 240.18 219.4 241 221.02C241 221.03 241.69 222.58 242 222.59C243.32 222.64 243.42 220.79 243.71 220C243.71 220 244 219.33 244 219.33C244 219.33 244.18 219 244.18 219C244.43 218.34 244.62 217.66 244.87 217C244.87 217 245 216.73 245 216.73C245 216.73 245.34 216 245.34 216C245.34 216 245.66 215 245.66 215C245.89 214.34 246.24 213.65 246.5 213C247.95 209.34 249.42 205.7 250.77 202C251.14 200.98 251.68 200 252.1 199C253.34 196.03 254.53 193.03 255.6 190C255.95 189 256.36 187.99 256.74 187C256.87 186.65 257.09 186.35 257.22 186C257.46 185.34 257.64 184.66 257.87 184C258.21 183.03 258.68 182.03 258.83 181C259.07 179.4 258.52 177.45 257 176.63C255.91 176.05 256.15 176.27 255 176.13C255 176.13 254.29 176 254.29 176C254.29 176 254.04 175 254.04 175C254.04 175 255 174.88 255 174.88C255.67 174.84 256.33 174.85 257 174.84C258.57 174.83 257.43 174.91 259 174.94C260.99 174.97 263.01 174.92 265 174.84C265.45 174.83 266.55 174.81 267 174.86C267 174.86 267.56 175 267.56 175C268.32 176.37 266.73 176.23 266 176.46C266 176.46 265 176.85 265 176.85C263.27 177.6 262.17 179.4 261.35 181C260.52 182.6 259.97 184.34 259.28 186C258.84 187.05 259.18 185.95 258.73 187C258.45 187.65 258.26 188.34 258.01 189C257.88 189.34 257.68 189.66 257.54 190C257.54 190 257.22 191 257.22 191C256.85 192.04 257.18 191.02 256.76 192C256.51 192.59 256.24 193.4 256.02 194C255.66 195.02 255.18 196 254.78 197C254.62 197.39 254.23 198.6 254.09 199C253.74 200.02 253.28 201.01 252.87 202C252.45 202.99 251.98 203.99 251.59 205C251.08 206.33 250.62 207.67 250.11 209C249.97 209.34 249.77 209.66 249.63 210C249.22 210.99 248.86 212 248.47 213C248.19 213.74 247.87 214.27 247.57 215C247.04 216.32 246.58 217.66 246.08 219C245.95 219.35 245.73 219.66 245.59 220C245 221.44 245.49 220.52 245 221.63C244.37 223.05 243.8 224.54 243.29 226C242.62 227.92 241.7 229.74 241 231.65C240.83 232.11 240.46 233.07 240 233.07C238.97 233.07 238.61 231.68 238.33 231C238.33 231 238 230.27 238 230.27C237.36 228.87 236.73 227.43 236.19 226C235.67 224.65 235 223.36 234.52 222C234.27 221.3 233.96 220.69 233.7 220C232.31 216.28 230.66 212.67 229.14 209C228.72 207.98 228.18 207.01 227.76 206C226.26 202.34 224.73 198.69 223.28 195C223.28 195 223 194.42 223 194.42C223 194.42 222.79 194 222.79 194C222.42 193.08 222.43 192.93 222.1 192C221.64 190.65 221.06 189.34 220.56 188C219.68 185.64 218.72 183.28 217.64 181C217.29 180.26 216.99 179.69 216.57 179C216.37 178.66 216.21 178.29 215.93 178C215.15 177.19 215 176.89 214 176.44C213.41 176.18 212.64 175.94 212 176.27C212 176.27 211.28 177 211.28 177C210.79 177.55 210.42 178.3 210 178.9C208.92 180.46 207.54 182.05 206 183.19C204.12 184.58 202.09 185.58 200 186.58C199.54 186.8 198.64 187.34 198.64 188C198.64 188.36 198.88 188.69 199.06 189C199.69 190.13 200.3 191.27 201 192.36C201.51 193.15 201.38 193.03 201.91 194C202.45 195.01 203.07 195.99 203.62 197C204.36 198.36 205.27 199.64 206 201.01C206.92 202.72 208.07 204.31 209.03 206C209.6 206.99 210.11 208 210.65 209C211.38 210.37 212.32 211.64 213.07 213C214.94 216.41 217.12 219.63 219.04 223C220.95 226.36 222.9 229.72 224.95 233C225.36 233.66 225.83 234.38 226.32 235C226.59 235.34 226.91 235.65 227.16 236C229.04 238.62 231.21 241.11 234 242.77C235.19 243.49 236.6 244.08 238 244.22C238 244.22 239 244.2 239 244.2C239.4 244.35 240.3 244.71 240 245.02ZM195.66 186C197.23 185.53 198.61 184.98 200 184.12C201.2 183.37 202.01 182.13 202.81 181C204.09 179.17 205.08 177.2 205.55 175C206.12 172.35 206.49 169.72 206.29 167C206.11 164.58 205.47 162.23 204.54 160C203.6 157.77 202.3 155.65 200.52 154C199.5 153.05 198.31 152.09 197 151.58C196.84 151.51 195.16 151.05 195 151.01C194.41 150.84 195.02 150.93 194 150.69C192.07 150.24 189.96 150.26 188 150.4C187.01 150.48 185.97 150.5 185 150.74C184.37 150.9 183.51 151.3 183 151.64C181.92 152.36 181.97 153.88 181.85 155C181.85 155 181.72 156 181.72 156C181.57 157.32 181.59 158.67 181.58 160C181.56 162 181.56 164 181.54 166C181.5 170.67 181.52 175.33 181.52 180C181.52 181 181.53 182 181.53 183C181.53 183.9 181.39 184.84 182 185.59C182.55 186.24 183.19 186.36 184 186.5C184.99 186.67 185 186.67 186 186.7C186.99 186.73 188.01 186.77 189 186.77C189.69 186.76 190.32 186.64 191 186.6C192.6 186.5 194.11 186.45 195.66 186Z"/></svg>