<svg xmlns="http://www.w3.org/2000/svg" viewBox="98.6 80.7 233.0 265.1" role="img" aria-label="ROVELLE"><path fill="currentColor" fill-rule="evenodd" d="M324 300.36C324 300.36 323 300.77 323 300.77C323 300.77 322 300.72 322 300.72C321.33 300.71 320.67 300.7 320 300.7C319.33 300.7 318.67 300.77 318 300.77C315 300.81 312 300.78 309 300.74C304.34 300.67 299.66 300.73 295 300.73C288.67 300.73 282.33 300.69 276 300.69C237 300.71 198 300.71 159 300.71C146.33 300.71 133.67 300.7 121 300.7C118 300.7 115 300.73 112 300.7C111 300.69 110 300.72 109 300.71C109 300.71 108 300.68 108 300.68C108 300.68 107.01 300 107.01 300C106.74 299.8 106.9 299.34 106.88 299C106.87 298.86 106.88 297.14 106.88 297C106.89 294.67 106.83 292.33 106.82 290C106.77 279.67 106.84 269.33 106.84 259C106.84 216 106.84 173 106.84 130C106.84 118 106.84 106 106.86 94C106.86 91.33 106.86 88.66 106.81 86C106.79 85.33 106.79 84.67 106.81 84C106.83 83.62 106.69 83.09 107 82.87C107 82.87 108 82.21 108 82.21C108 82.21 109 82.21 109 82.21C111 82.25 109 82.27 111 82.24C114.33 82.2 117.67 82.27 121 82.27C133 82.28 145 82.28 157 82.28C180.33 82.28 203.67 82.22 227 82.25C243.67 82.27 260.33 82.35 277 82.28C288.33 82.23 299.67 82.2 311 82.3C313 82.32 315 82.33 317 82.33C318.34 82.34 319.66 82.27 321 82.31C322.1 82.35 322.98 82.06 324 82.65C324.49 82.92 324.37 83.55 324.39 84C324.41 84.67 324.42 85.33 324.44 86C324.54 88.99 324.43 92 324.44 95C324.5 107.33 324.44 119.67 324.44 132C324.44 162 324.43 192 324.45 222C324.46 233 324.4 244 324.44 255C324.48 266 324.41 277 324.45 288C324.47 291 324.44 294 324.41 297C324.4 298.07 324.62 299.43 324 300.36ZM322.32 298C322.51 296.21 322.4 297.8 322.36 296C322.33 294.67 322.38 293.33 322.39 292C322.39 288.67 322.43 285.33 322.44 282C322.47 271.33 322.44 260.67 322.44 250C322.44 218 322.48 186 322.43 154C322.4 138 322.45 122 322.45 106C322.45 101.33 322.43 96.67 322.4 92C322.39 90.33 322.37 88.67 322.38 87C322.38 86.3 322.47 85.69 322.26 85C322.26 85 322 84.65 322 84.65C322 84.65 321 84.16 321 84.16C320.87 84.13 319.12 84.21 319 84.21C316.34 84.25 313.67 84.19 311 84.22C298.67 84.36 286.33 84.25 274 84.25C254 84.25 234 84.29 214 84.28C193 84.27 172 84.19 151 84.28C140.67 84.33 130.33 84.21 120 84.25C117.67 84.26 115.33 84.34 113 84.32C111.88 84.31 112.12 84.26 111 84.28C111 84.28 110 84.32 110 84.32C110 84.32 109.03 85 109.03 85C109.03 85 109 85.18 109 85.18C109 85.18 108.88 86 108.88 86C108.88 86.08 108.9 87.92 108.9 88C108.9 90.67 108.9 93.33 108.92 96C109 106.33 108.81 116.67 108.97 127C109.05 132 108.97 137 108.98 142C109 153.33 109.01 164.67 108.99 176C108.93 201.33 109.01 226.67 109.01 252C109.01 260.33 109.03 268.67 109.01 277C109.01 280.33 108.94 283.67 108.97 287C108.99 289.67 108.95 292.33 108.94 295C108.94 295.67 108.82 296.33 108.85 297C108.85 297 109 297.88 109 297.88C109 297.88 109.02 298 109.02 298C109.02 298 110 298.66 110 298.66C110 298.66 111 298.7 111 298.7C111.87 298.71 112.14 298.68 113 298.67C114.67 298.64 116.33 298.66 118 298.67C126 298.72 134 298.66 142 298.66C172.67 298.66 203.33 298.71 234 298.71C256 298.71 278 298.54 300 298.68C305.66 298.71 311.34 298.84 317 298.7C318.21 298.66 317.79 298.62 319 298.65C319.99 298.67 321.07 298.9 322 298.41C322 298.41 322.32 298 322.32 298ZM240 245.02C240 245.02 239 245.46 239 245.46C239 245.46 238 245.42 238 245.42C236.68 245.37 237.32 245.37 236 245.39C234 245.43 232 245.41 230 245.42C229.33 245.43 228.67 245.36 228 245.38C227.04 245.42 226.95 245.66 226 245.32C226 245.32 225.59 245 225.59 245C224.91 244.4 224.34 243.69 223.74 243C222.4 241.43 221.28 239.76 220.2 238C219.57 236.99 218.9 236.02 218.3 235C218.2 234.84 217.65 234.09 217.6 234C216.75 232.69 215.94 231.35 215.16 230C214.39 228.64 213.47 227.35 212.67 226C211.9 224.69 211.2 223.34 210.48 222C209.76 220.65 208.94 219.35 208.2 218C207.44 216.63 206.5 215.36 205.74 214C204.78 212.29 203.64 210.69 202.66 209C202.09 208.01 201.56 207 201 206C200.24 204.64 199.34 203.35 198.55 202C197.4 200.02 196.27 198.02 195.19 196C194.45 194.64 193.56 193.34 192.79 192C192.2 190.98 191.69 189.98 191.03 189C190.82 188.69 190.36 188.65 190 188.56C189.55 188.44 188.45 188.47 188 188.46C187 188.43 186 188.39 185 188.31C183.96 188.22 182.96 187.93 182 188.53C181.5 188.85 181.6 189.53 181.58 190C181.49 191.99 181.63 194.01 181.63 196C181.63 201 181.46 206 181.51 211C181.54 213.3 181.36 215.76 181.94 218C182.03 218.35 182.21 218.67 182.35 219C182.7 219.83 183.16 220.74 184 221.2C184.83 221.66 185.09 221.74 186 221.92C186.64 222.04 187.36 222.21 188 222.32C188 222.32 189 222.41 189 222.41C189 222.41 189.45 223 189.45 223C189.45 223 189 223.27 189 223.27C189 223.27 188 223.33 188 223.33C186.67 223.39 185.33 223.4 184 223.36C181.67 223.29 179.34 223.35 177 223.35C176 223.35 175 223.28 174 223.29C172.67 223.3 171.33 223.25 170 223.27C169.22 223.28 168.78 223.37 168 223.19C167.57 223.1 167.45 222.85 168 222.59C169.09 222.07 168.89 222.58 170 222.31C170 222.31 170.47 222 170.47 222C170.47 222 171 221.86 171 221.86C172.41 221.38 173.76 220.44 174.35 219C174.57 218.47 174.74 217.56 174.83 217C175.02 215.67 174.97 214.33 174.96 213C174.95 210.67 174.94 208.33 174.91 206C174.86 201 174.89 196 174.97 191C175.03 187.33 174.93 183.67 174.89 180C174.86 177.33 174.9 174.67 174.91 172C174.93 168.67 174.94 165.33 174.9 162C174.88 160.34 174.96 158.65 174.77 157C174.7 156.33 174.58 155.67 174.49 155C174.33 153.82 174.04 152.37 173 151.6C172.12 150.94 171.09 150.39 170 150.23C169.97 150.23 168.19 150.14 168.11 150C168.11 150 168.4 149 168.4 149C168.4 149 169 148.91 169 148.91C169.67 148.9 170.34 149.01 171 149.02C174 149.08 176.99 149.17 180 149.15C182.34 149.14 184.66 148.87 187 148.71C188 148.65 189 148.68 190 148.67C191 148.67 192 148.63 193 148.69C197.15 148.94 201.32 149.79 205 151.79C206.9 152.81 208.51 154.22 210 155.77C210.56 156.36 211.11 157.29 211.55 158C212.14 158.96 212.45 159.92 212.77 161C213.06 162 213.36 162.97 213.51 164C213.67 165 213.64 165.99 213.63 167C213.62 168.01 213.62 169 213.48 170C213.37 170.79 213.26 171.22 213.07 172C212.99 172.34 212.83 172.66 212.76 173C212.68 173.41 212.47 174.26 213 174.6C213.63 174.99 214.34 174.78 215 174.79C215 174.79 216 174.86 216 174.86C217 174.9 218 174.78 219 174.78C221 174.78 223 174.86 225 174.78C225.39 174.77 226.61 174.71 227 174.77C227.6 174.87 227.97 175.24 227.64 176C227.64 176 227 176.26 227 176.26C226.24 176.46 225.57 176.35 225 177.06C225 177.06 224.28 178 224.28 178C223.94 178.73 224.13 179.27 224.26 180C224.4 180.77 224.48 181.26 224.76 182C225.15 183.04 224.86 181.95 225.25 183C225.73 184.32 226.16 185.7 226.7 187C226.84 187.34 227.06 187.66 227.2 188C227.9 189.67 228.62 191.32 229.3 193C230.51 196.01 231.85 198.98 233.04 202C233.95 204.33 234.78 206.7 235.77 209C236.35 210.33 236.96 211.67 237.55 213C237.7 213.34 237.9 213.65 238.02 214C238.49 215.25 238.27 214.78 238.85 216C239.63 217.64 240.18 219.4 241 221.02C241 221.03 241.69 222.58 242 222.59C243.32 222.64 243.42 220.79 243.71 220C243.71 220 244 219.33 244 219.33C244 219.33 244.18 219 244.18 219C244.43 218.34 244.62 217.66 244.87 217C244.87 217 245 216.73 245 216.73C245 216.73 245.34 216 245.34 216C245.34 216 245.66 215 245.66 215C245.89 214.34 246.24 213.65 246.5 213C247.95 209.34 249.42 205.7 250.77 202C251.14 200.98 251.68 200 252.1 199C253.34 196.03 254.53 193.03 255.6 190C255.95 189 256.36 187.99 256.74 187C256.87 186.65 257.09 186.35 257.22 186C257.46 185.34 257.64 184.66 257.87 184C258.21 183.03 258.68 182.03 258.83 181C259.07 179.4 258.52 177.45 257 176.63C255.91 176.05 256.15 176.27 255 176.13C255 176.13 254.29 176 254.29 176C254.29 176 254.04 175 254.04 175C254.04 175 255 174.88 255 174.88C255.67 174.84 256.33 174.85 257 174.84C258.57 174.83 257.43 174.91 259 174.94C260.99 174.97 263.01 174.92 265 174.84C265.45 174.83 266.55 174.81 267 174.86C267 174.86 267.56 175 267.56 175C268.32 176.37 266.73 176.23 266 176.46C266 176.46 265 176.85 265 176.85C263.27 177.6 262.17 179.4 261.35 181C260.52 182.6 259.97 184.34 259.28 186C258.84 187.05 259.18 185.95 258.73 187C258.45 187.65 258.26 188.34 258.01 189C257.88 189.34 257.68 189.66 257.54 190C257.54 190 257.22 191 257.22 191C256.85 192.04 257.18 191.02 256.76 192C256.51 192.59 256.24 193.4 256.02 194C255.66 195.02 255.18 196 254.78 197C254.62 197.39 254.23 198.6 254.09 199C253.74 200.02 253.28 201.01 252.87 202C252.45 202.99 251.98 203.99 251.59 205C251.08 206.33 250.62 207.67 250.11 209C249.97 209.34 249.77 209.66 249.63 210C249.22 210.99 248.86 212 248.47 213C248.19 213.74 247.87 214.27 247.57 215C247.04 216.32 246.58 217.66 246.08 219C245.95 219.35 245.73 219.66 245.59 220C245 221.44 245.49 220.52 245 221.63C244.37 223.05 243.8 224.54 243.29 226C242.62 227.92 241.7 229.74 241 231.65C240.83 232.11 240.46 233.07 240 233.07C238.97 233.07 238.61 231.68 238.33 231C238.33 231 238 230.27 238 230.27C237.36 228.87 236.73 227.43 236.19 226C235.67 224.65 235 223.36 234.52 222C234.27 221.3 233.96 220.69 233.7 220C232.31 216.28 230.66 212.67 229.14 209C228.72 207.98 228.18 207.01 227.76 206C226.26 202.34 224.73 198.69 223.28 195C223.28 195 223 194.42 223 194.42C223 194.42 222.79 194 222.79 194C222.42 193.08 222.43 192.93 222.1 192C221.64 190.65 221.06 189.34 220.56 188C219.68 185.64 218.72 183.28 217.64 181C217.29 180.26 216.99 179.69 216.57 179C216.37 178.66 216.21 178.29 215.93 178C215.15 177.19 215 176.89 214 176.44C213.41 176.18 212.64 175.94 212 176.27C212 176.27 211.28 177 211.28 177C210.79 177.55 210.42 178.3 210 178.9C208.92 180.46 207.54 182.05 206 183.19C204.12 184.58 202.09 185.58 200 186.58C199.54 186.8 198.64 187.34 198.64 188C198.64 188.36 198.88 188.69 199.06 189C199.69 190.13 200.3 191.27 201 192.36C201.51 193.15 201.38 193.03 201.91 194C202.45 195.01 203.07 195.99 203.62 197C204.36 198.36 205.27 199.64 206 201.01C206.92 202.72 208.07 204.31 209.03 206C209.6 206.99 210.11 208 210.65 209C211.38 210.37 212.32 211.64 213.07 213C214.94 216.41 217.12 219.63 219.04 223C220.95 226.36 222.9 229.72 224.95 233C225.36 233.66 225.83 234.38 226.32 235C226.59 235.34 226.91 235.65 227.16 236C229.04 238.62 231.21 241.11 234 242.77C235.19 243.49 236.6 244.08 238 244.22C238 244.22 239 244.2 239 244.2C239.4 244.35 240.3 244.71 240 245.02ZM195.66 186C197.23 185.53 198.61 184.98 200 184.12C201.2 183.37 202.01 182.13 202.81 181C204.09 179.17 205.08 177.2 205.55 175C206.12 172.35 206.49 169.72 206.29 167C206.11 164.58 205.47 162.23 204.54 160C203.6 157.77 202.3 155.65 200.52 154C199.5 153.05 198.31 152.09 197 151.58C196.84 151.51 195.16 151.05 195 151.01C194.41 150.84 195.02 150.93 194 150.69C192.07 150.24 189.96 150.26 188 150.4C187.01 150.48 185.97 150.5 185 150.74C184.37 150.9 183.51 151.3 183 151.64C181.92 152.36 181.97 153.88 181.85 155C181.85 155 181.72 156 181.72 156C181.57 157.32 181.59 158.67 181.58 160C181.56 162 181.56 164 181.54 166C181.5 170.67 181.52 175.33 181.52 180C181.52 181 181.53 182 181.53 183C181.53 183.9 181.39 184.84 182 185.59C182.55 186.24 183.19 186.36 184 186.5C184.99 186.67 185 186.67 186 186.7C186.99 186.73 188.01 186.77 189 186.77C189.69 186.76 190.32 186.64 191 186.6C192.6 186.5 194.11 186.45 195.66 186ZM103 344.09C102.44 344.1 101.56 344.13 101 344.08C101 344.08 100.66 344 100.66 344C99.97 342.87 100.47 343.09 100.76 342C100.76 342 100.87 341 100.87 341C101.02 338.01 100.93 334.99 100.83 332C100.8 331.03 100.99 329.93 100.67 329C100.67 329 100.15 328 100.15 328C100.15 328 101 327.26 101 327.26C101.35 327.12 102.69 327.36 103 327.51C103 327.51 103.53 328 103.53 328C103.53 328 103 328.73 103 328.73C102.82 329.01 102.7 329.97 102.7 330C102.64 330.66 102.73 331.33 102.71 332C102.69 332.46 102.58 333.54 102.67 334C102.82 334.8 103.37 335.13 103.31 336C103.31 336 103 336.32 103 336.32C102.68 336.86 102.62 337.36 102.6 338C102.6 338 102.66 339 102.66 339C102.68 340.05 102.49 340.97 102.8 342C102.91 342.37 103.32 342.62 103.38 343C103.56 344.01 103.52 343.93 103 344.09ZM109 334.01C109 334.01 108 334.66 108 334.66C108 334.66 107.69 334 107.69 334C107.69 333.98 108.21 333.09 108.24 333C108.58 331.97 108.58 331.02 108.2 330C108.04 329.59 107.62 329.34 107.33 329C107.33 329 107 328.58 107 328.58C107 328.58 106 328.05 106 328.05C106 328.05 105.86 328 105.86 328C105.86 328 106 327.85 106 327.85C106 327.85 107 327.51 107 327.51C108.85 327.33 110.16 329.39 110.26 331C110.33 332.17 109.81 333.18 109 334.01ZM150 341.58C150 341.58 149.22 341 149.22 341C149.22 341 149.58 340 149.58 340C149.77 339.47 150.12 338.59 150.23 338C150.53 336.35 150.45 334.58 149.91 333C149.52 331.88 149.08 330.93 148.35 330C148.06 329.63 147.61 329.32 147.29 329C147.29 329 147 328.64 147 328.64C147 328.64 146 328.12 146 328.12C146 328.12 145.72 328 145.72 328C145.72 328 146 327.67 146 327.67C146.84 327.36 147.63 327.57 148.37 328C149.46 328.63 150.27 329.44 151 330.46C151.55 331.24 151.32 330.88 151.76 332C152.38 333.58 152.67 335.3 152.34 337C152.15 338.01 151.66 339.08 151.23 340C150.96 340.59 150.4 341.08 150 341.58ZM184 343.53C184 343.53 183 343.53 183 343.53C183 343.53 182.61 343 182.61 343C182.37 342.54 182.22 342.04 182 341.57C181.45 340.39 180.98 339.2 180.51 338C180.23 337.3 179.9 336.71 179.66 336C179.66 336 179.35 335 179.35 335C179.25 334.74 178.95 334.3 178.82 334C178.56 333.39 178.2 332.62 177.96 332C177.67 331.24 177.44 330.46 177 329.77C176.68 329.26 176.36 328.69 176 328.21C176 328.21 175.79 328 175.79 328C175.79 328 176 327.67 176 327.67C176.48 327.41 177.45 327.2 178 327.34C178 327.34 179 327.88 179 327.88C179.12 327.95 179.02 328.12 179 328.19C179 328.19 178.82 329 178.82 329C178.82 329.55 179.27 330.56 179.47 331C179.64 331.36 179.85 331.7 180 332.06C180.26 332.71 180.47 333.37 180.76 334C180.76 334 181 334.39 181 334.39C181 334.39 181.31 335 181.31 335C181.89 336.34 182.49 337.62 182.99 339C183.18 339.52 183.61 339.92 184 340.29C184 340.29 184.74 341 184.74 341C184.74 341 184.62 342 184.62 342C184.43 342.87 184.37 342.89 184 343.53ZM221 344.01C219.68 344.1 218.33 344.26 217 344.23C217 344.23 216 344.14 216 344.14C216 344.14 215.65 344 215.65 344C215.39 342.93 216.09 342.87 216.28 342C216.43 341.33 216.3 340.68 216.33 340C216.33 340 216.43 339 216.43 339C216.48 337.68 216.4 336.32 216.38 335C216.37 333.67 216.31 332.33 216.29 331C216.29 331 216.33 330 216.33 330C216.3 329.62 216.21 329.09 216 328.71C216 328.71 215.56 328 215.56 328C215.56 327.42 216.76 327.17 217 327.15C217.96 327.05 218.14 327.4 219 327.73C219 327.73 219.87 328 219.87 328C219.87 328 219 328.12 219 328.12C219 328.12 218.31 329 218.31 329C218.05 329.57 218.18 330.41 218.15 331C218.11 332 217.82 333.03 218.26 334C218.26 334 218.93 335 218.93 335C218.93 335 218.51 336 218.51 336C218.51 336 218.11 337 218.11 337C218.08 337.14 218.02 338.86 218.03 339C218.03 339 218.11 340 218.11 340C218.12 340.5 218.01 341.52 218.23 342C218.23 342 219 342.97 219 342.97C219.28 343.3 219.62 343.59 220 343.78C220 343.78 221 343.97 221 343.97C221 343.97 221.46 344 221.46 344C221.46 344 221 344.01 221 344.01ZM254 344C253.33 344.04 252.67 344.12 252 344.12C252 344.12 251 344.06 251 344.06C251 344.06 250.87 344 250.87 344C250.87 344 250.82 343 250.82 343C250.82 343 251 342.72 251 342.72C251 342.72 251.3 342 251.3 342C251.3 342 251.36 341 251.36 341C251.36 341 251.3 340 251.3 340C251.23 337.67 251.34 335.33 251.32 333C251.31 332.01 251.47 330.99 251.4 330C251.36 329.26 251.31 329.03 251 328.46C251 328.46 250.71 328 250.71 328C250.71 327.45 251.8 327.25 252 327.23C252.41 327.19 253.76 327.38 253.87 328C253.87 328 253.31 329 253.31 329C253.31 329 253.18 330 253.18 330C253.12 330.99 253.2 332.01 253.22 333C253.26 334.67 253.26 336.33 253.25 338C253.24 339.36 253.33 338.64 253.27 340C253.25 340.66 253.07 341.35 253.32 342C253.32 342 253.97 343 253.97 343C253.97 343 254 343.89 254 343.89C254.01 344 254.08 344 254 344ZM289 344.03C288.02 344.14 286.99 344.27 286 344.16C286 344.16 285.31 344 285.31 344C284.85 343.29 285.49 342.61 285.62 342C285.62 342 285.67 341 285.67 341C285.72 338.34 285.74 335.66 285.71 333C285.7 331.73 285.9 330.23 285.49 329C285.49 329 285.01 328 285.01 328C285.01 328 286 327.26 286 327.26C286.41 327.1 287.64 327.29 288 327.49C288 327.49 288.4 328 288.4 328C288.4 328 288 328.69 288 328.69C287.76 329.11 287.69 329.47 287.62 330C287.54 330.67 287.63 331.33 287.65 332C287.7 334 287.65 336 287.63 338C287.62 339.36 287.64 338.64 287.64 340C287.63 340.48 287.58 341.53 287.69 342C287.87 342.75 288.01 342.48 288.41 343C288.41 343 289 343.92 289 343.92C289 343.92 289.31 344 289.31 344C289.31 344 289 344.03 289 344.03ZM329 344.2C329 344.2 328 344.27 328 344.27C325.99 344.17 328.01 344.11 326 344.04C324.67 343.99 323.33 344.09 322 344.13C321.6 344.14 320.41 344.22 320 344.17C320 344.17 319.52 344 319.52 344C319.08 342.94 319.86 342.94 320.02 342C320.02 342 320.18 341 320.18 341C320.18 341 320.1 340 320.1 340C320.1 339.33 320.18 338.67 320.19 338C320.22 336.67 320.19 335.33 320.17 334C320.15 332.67 320.13 331.33 320.07 330C320.05 329.66 319.95 329.32 319.83 329C319.83 329 319.35 328 319.35 328C319.35 328 320 327.31 320 327.31C321.07 326.75 322.08 327.46 323 327.87C323 327.87 323.49 328 323.49 328C323.49 328 323 328.04 323 328.04C323 328.04 322.19 329 322.19 329C321.96 329.47 322.08 330.52 322.07 331C322.04 332.01 321.79 333.02 322.2 334C322.2 334 322.79 335 322.79 335C322.82 335.52 321.99 336.45 321.95 337C321.87 338.01 321.98 339 321.98 340C321.98 340 321.9 341 321.9 341C321.9 341 322 341.4 322 341.4C322 341.4 322.11 342 322.11 342C322.11 342 322.93 343 322.93 343C322.93 343 323 343.3 323 343.3C323.85 343.94 324.98 344.04 326 343.86C326 343.86 327 343.56 327 343.56C327 343.56 327.23 343 327.23 343C327.23 343 328 342.63 328 342.63C328.95 342.06 328.83 341.71 330 341.82C330 341.82 330.11 342 330.11 342C330.11 342 330.16 343 330.16 343C330.16 343 330 343.3 330 343.3C329.43 343.99 329.55 343.88 329 344.2ZM141 343.99C140.34 343.7 139.66 343.46 139 343.17C138.49 342.93 138.03 342.41 137.64 342C135.65 339.86 134.97 336.85 135.44 334C135.66 332.62 136.12 331.5 137 330.4C137 330.4 137.43 330 137.43 330C137.43 330 138 329.47 138 329.47C139.14 329.47 138.18 330.88 138.12 331C137.91 331.48 137.82 331.14 137.53 332C137.53 332 137.39 333 137.39 333C137.32 333.53 137.14 334.46 137.14 335C137.14 335.05 137.35 336.95 137.36 337C137.67 338.97 138.61 340.51 140 341.9C140.3 342.2 140.65 342.45 141 342.68C141 342.68 141.66 343 141.66 343C141.66 343 141 343.99 141 343.99ZM113 344.12C113 344.12 112 344.2 112 344.2C112 344.2 111.53 344 111.53 344C110.94 343.74 110.44 343.48 110 342.96C108.68 341.41 107.61 339.77 106.62 338C106.42 337.63 106.3 337.2 106 336.9C106 336.9 105.09 336 105.09 336C105.09 336 106 335.16 106 335.16C106 335.16 106.35 335 106.35 335C106.58 334.91 107.36 334.45 107.59 335C107.59 335 107.53 336 107.53 336C107.62 336.38 107.93 336.67 108.14 337C108.74 337.93 109.36 338.85 110 339.75C110.34 340.23 110.59 340.78 111 341.21C111.33 341.56 111.64 341.93 112 342.25C112 342.25 112.88 343 112.88 343C112.88 343 113 343.44 113 343.44C113.2 344.08 113.36 343.89 113 344.12Z"/></svg>