<svg xmlns="http://www.w3.org/2000/svg" viewBox="98.9 326.0 233.0 20.0" role="img" aria-label="ROVELLE"><path fill="currentColor" fill-rule="evenodd" d="M318.2 327.1L317.9 327.8L318.0 328.5L320.0 330.4L320.0 342.5L318.0 344.2L318.0 344.6L319.4 345.9L319.9 346.0L329.5 345.9L330.9 344.5L330.9 343.4L331.9 342.6L331.9 342.2L330.5 341.0L329.4 341.0L327.5 343.0L324.4 343.0L322.9 341.5L322.9 337.4L323.1 337.0L326.5 336.9L327.4 337.9L329.4 337.9L330.0 337.1L329.9 336.4L328.9 335.5L328.9 333.5L328.4 332.9L327.4 333.0L326.5 334.0L323.1 333.9L322.9 333.5L322.9 330.4L324.2 328.9L324.8 328.9L325.1 329.6L325.6 330.0L326.8 329.8L327.5 329.9L329.2 331.9L329.6 331.9L330.9 330.5L330.9 328.4L329.5 327.0ZM284.2 327.1L283.9 328.1L284.0 328.5L285.0 329.4L285.0 342.5L284.0 343.4L284.0 344.5L285.4 345.9L294.5 345.9L296.9 343.5L296.9 341.5L296.5 341.0L295.4 341.0L294.6 342.0L293.4 342.0L292.5 343.0L289.4 343.0L288.9 342.5L288.9 329.4L289.9 328.5L289.9 327.4L289.4 327.0ZM250.2 327.1L249.9 328.1L250.0 328.5L251.0 329.4L251.0 342.5L249.1 344.1L249.1 344.9L250.8 345.0L251.2 345.9L251.6 345.9L252.6 344.8L253.5 344.9L254.4 345.9L259.5 345.9L260.4 344.9L261.6 344.9L261.9 344.6L261.9 343.4L262.9 342.5L263.0 342.1L262.9 341.4L262.4 341.0L260.4 341.0L258.5 343.0L255.4 343.0L253.9 341.6L253.9 341.2L254.9 340.5L255.0 340.0L255.0 336.8L254.8 336.2L253.9 335.6L253.9 335.2L254.9 334.5L254.9 332.4L253.9 331.5L253.8 330.8L253.9 330.4L255.9 328.5L256.0 327.8L255.4 327.0ZM214.2 327.1L213.9 327.8L214.0 328.5L214.4 328.9L215.6 328.9L216.0 329.2L216.0 342.5L214.0 344.2L214.0 344.6L215.4 345.9L215.9 346.0L224.5 345.9L225.4 344.9L226.6 344.9L226.9 344.6L226.9 343.4L227.9 342.5L228.0 342.1L227.9 341.4L227.4 341.0L225.4 341.0L223.5 343.0L220.4 343.0L218.9 341.5L218.9 337.4L219.1 337.0L222.5 336.9L223.4 337.9L225.5 337.9L225.9 337.5L226.0 334.9L225.9 334.4L224.6 333.0L224.0 333.1L223.9 333.6L223.0 334.1L219.1 333.9L218.9 333.5L218.9 330.4L219.4 329.9L223.5 329.9L225.2 331.9L225.8 331.9L226.0 331.2L226.9 330.5L227.0 330.1L226.8 327.1ZM99.2 327.1L98.9 328.1L99.0 328.5L100.0 329.4L100.0 332.5L101.0 333.4L101.1 339.1L101.0 339.5L100.0 340.2L100.1 340.8L100.8 341.0L101.0 341.6L99.0 343.4L99.0 344.5L100.6 346.0L101.5 345.9L102.2 344.9L102.6 344.9L103.4 345.9L104.2 346.0L105.9 344.5L105.9 343.4L105.4 343.0L104.4 343.0L103.9 342.5L104.0 338.6L103.8 337.4L104.1 336.9L104.6 336.9L107.0 339.4L107.0 340.5L109.0 342.4L109.0 343.5L110.4 344.9L111.5 344.9L112.4 345.9L114.6 345.9L114.9 345.6L114.9 343.4L113.5 342.0L112.2 342.0L111.9 341.6L111.9 340.4L109.9 338.5L109.9 337.4L108.9 336.6L108.9 336.2L110.9 334.5L110.9 332.4L111.9 331.6L111.9 331.2L110.9 330.5L110.9 329.4L108.5 327.0ZM104.5 328.8L105.4 328.8L106.2 329.9L107.5 329.9L108.0 330.4L108.0 333.5L106.5 335.0L104.6 335.1L103.9 334.6L103.9 329.4ZM174.1 327.0L174.0 327.6L177.0 330.4L177.0 331.5L178.0 332.4L178.0 334.5L179.0 335.4L179.0 336.5L179.9 337.1L180.0 338.5L181.0 339.4L181.1 340.1L180.9 341.1L181.0 341.5L182.0 342.4L182.0 343.5L183.4 344.9L184.5 344.9L185.9 343.5L185.9 341.4L186.9 340.5L186.9 339.4L187.1 339.0L187.8 338.8L187.9 337.4L188.9 336.5L189.0 336.1L188.8 335.1L188.9 334.2L189.8 333.8L189.9 332.2L190.8 331.8L190.9 330.4L192.9 328.5L192.9 327.4L192.4 327.0L187.1 327.0L187.0 327.6L188.1 328.6L188.1 332.2L188.0 332.6L187.0 333.4L187.0 334.6L186.0 335.4L186.0 336.5L185.1 337.2L185.0 338.8L184.2 339.0L183.8 338.5L183.8 337.2L182.9 336.5L182.9 335.4L181.9 334.5L181.9 333.4L180.9 332.5L180.8 331.1L180.2 330.9L179.8 330.1L179.9 329.4L180.9 328.5L180.9 327.4L180.4 327.0ZM143.4 326.0L142.4 327.1L141.1 326.9L140.4 327.0L136.0 331.4L136.0 332.5L135.0 333.4L135.0 339.5L136.0 340.4L136.0 341.5L139.4 344.9L140.0 345.0L141.1 344.8L141.5 344.9L142.4 345.9L142.9 346.0L146.5 345.9L147.1 345.0L148.5 344.9L152.9 340.5L153.0 339.8L152.8 338.8L152.9 338.4L153.9 337.5L153.9 333.4L152.9 332.5L152.9 331.4L148.5 327.0L147.8 326.9L146.9 327.1L146.4 327.0L145.5 326.0ZM142.6 328.8L144.0 329.0L145.5 328.9L146.1 329.8L147.5 329.9L149.0 331.4L149.1 332.1L148.9 333.1L149.0 333.5L150.0 334.4L150.0 339.5L146.5 343.0L142.4 343.0L138.9 339.5L138.8 339.1L138.9 336.6L138.8 336.2L137.9 335.6L137.9 335.2L139.0 334.2L138.8 333.1L138.9 332.4L139.9 331.5L139.9 330.2L140.2 329.9L141.5 329.9L142.0 329.1Z"/></svg>